<?xml version="1.0" encoding="utf-8" standalone="no"?>
<!DOCTYPE svg PUBLIC "-//W3C//DTD SVG 1.1//EN"
  "http://www.w3.org/Graphics/SVG/1.1/DTD/svg11.dtd">
<!-- Created with matplotlib (https://matplotlib.org/) -->
<svg height="288pt" version="1.1" viewBox="0 0 1152 288" width="1152pt" xmlns="http://www.w3.org/2000/svg" xmlns:xlink="http://www.w3.org/1999/xlink">
 <defs>
  <style type="text/css">
*{stroke-linecap:butt;stroke-linejoin:round;}
  </style>
 </defs>
 <g id="figure_1">
  <g id="patch_1">
   <path d="M 0 288 
L 1152 288 
L 1152 0 
L 0 0 
z
" style="fill:#ffffff;"/>
  </g>
  <g id="axes_1">
   <g id="patch_2">
    <path d="M 36.79 224.889131 
L 1141.2 224.889131 
L 1141.2 26.88 
L 36.79 26.88 
z
" style="fill:#ffffff;"/>
   </g>
   <g id="matplotlib.axis_1">
    <g id="xtick_1">
     <g id="line2d_1">
      <defs>
       <path d="M 0 0 
L 0 3.5 
" id="md6210c36c8" style="stroke:#000000;stroke-width:0.8;"/>
      </defs>
      <g>
       <use style="stroke:#000000;stroke-width:0.8;" x="86.990455" xlink:href="#md6210c36c8" y="224.889131"/>
      </g>
     </g>
     <g id="text_1">
      <!-- 51837cf -->
      <defs>
       <path d="M 10.796875 72.90625 
L 49.515625 72.90625 
L 49.515625 64.59375 
L 19.828125 64.59375 
L 19.828125 46.734375 
Q 21.96875 47.46875 24.109375 47.828125 
Q 26.265625 48.1875 28.421875 48.1875 
Q 40.625 48.1875 47.75 41.5 
Q 54.890625 34.8125 54.890625 23.390625 
Q 54.890625 11.625 47.5625 5.09375 
Q 40.234375 -1.421875 26.90625 -1.421875 
Q 22.3125 -1.421875 17.546875 -0.640625 
Q 12.796875 0.140625 7.71875 1.703125 
L 7.71875 11.625 
Q 12.109375 9.234375 16.796875 8.0625 
Q 21.484375 6.890625 26.703125 6.890625 
Q 35.15625 6.890625 40.078125 11.328125 
Q 45.015625 15.765625 45.015625 23.390625 
Q 45.015625 31 40.078125 35.4375 
Q 35.15625 39.890625 26.703125 39.890625 
Q 22.75 39.890625 18.8125 39.015625 
Q 14.890625 38.140625 10.796875 36.28125 
z
" id="DejaVuSans-53"/>
       <path d="M 12.40625 8.296875 
L 28.515625 8.296875 
L 28.515625 63.921875 
L 10.984375 60.40625 
L 10.984375 69.390625 
L 28.421875 72.90625 
L 38.28125 72.90625 
L 38.28125 8.296875 
L 54.390625 8.296875 
L 54.390625 0 
L 12.40625 0 
z
" id="DejaVuSans-49"/>
       <path d="M 31.78125 34.625 
Q 24.75 34.625 20.71875 30.859375 
Q 16.703125 27.09375 16.703125 20.515625 
Q 16.703125 13.921875 20.71875 10.15625 
Q 24.75 6.390625 31.78125 6.390625 
Q 38.8125 6.390625 42.859375 10.171875 
Q 46.921875 13.96875 46.921875 20.515625 
Q 46.921875 27.09375 42.890625 30.859375 
Q 38.875 34.625 31.78125 34.625 
z
M 21.921875 38.8125 
Q 15.578125 40.375 12.03125 44.71875 
Q 8.5 49.078125 8.5 55.328125 
Q 8.5 64.0625 14.71875 69.140625 
Q 20.953125 74.21875 31.78125 74.21875 
Q 42.671875 74.21875 48.875 69.140625 
Q 55.078125 64.0625 55.078125 55.328125 
Q 55.078125 49.078125 51.53125 44.71875 
Q 48 40.375 41.703125 38.8125 
Q 48.828125 37.15625 52.796875 32.3125 
Q 56.78125 27.484375 56.78125 20.515625 
Q 56.78125 9.90625 50.3125 4.234375 
Q 43.84375 -1.421875 31.78125 -1.421875 
Q 19.734375 -1.421875 13.25 4.234375 
Q 6.78125 9.90625 6.78125 20.515625 
Q 6.78125 27.484375 10.78125 32.3125 
Q 14.796875 37.15625 21.921875 38.8125 
z
M 18.3125 54.390625 
Q 18.3125 48.734375 21.84375 45.5625 
Q 25.390625 42.390625 31.78125 42.390625 
Q 38.140625 42.390625 41.71875 45.5625 
Q 45.3125 48.734375 45.3125 54.390625 
Q 45.3125 60.0625 41.71875 63.234375 
Q 38.140625 66.40625 31.78125 66.40625 
Q 25.390625 66.40625 21.84375 63.234375 
Q 18.3125 60.0625 18.3125 54.390625 
z
" id="DejaVuSans-56"/>
       <path d="M 40.578125 39.3125 
Q 47.65625 37.796875 51.625 33 
Q 55.609375 28.21875 55.609375 21.1875 
Q 55.609375 10.40625 48.1875 4.484375 
Q 40.765625 -1.421875 27.09375 -1.421875 
Q 22.515625 -1.421875 17.65625 -0.515625 
Q 12.796875 0.390625 7.625 2.203125 
L 7.625 11.71875 
Q 11.71875 9.328125 16.59375 8.109375 
Q 21.484375 6.890625 26.8125 6.890625 
Q 36.078125 6.890625 40.9375 10.546875 
Q 45.796875 14.203125 45.796875 21.1875 
Q 45.796875 27.640625 41.28125 31.265625 
Q 36.765625 34.90625 28.71875 34.90625 
L 20.21875 34.90625 
L 20.21875 43.015625 
L 29.109375 43.015625 
Q 36.375 43.015625 40.234375 45.921875 
Q 44.09375 48.828125 44.09375 54.296875 
Q 44.09375 59.90625 40.109375 62.90625 
Q 36.140625 65.921875 28.71875 65.921875 
Q 24.65625 65.921875 20.015625 65.03125 
Q 15.375 64.15625 9.8125 62.3125 
L 9.8125 71.09375 
Q 15.4375 72.65625 20.34375 73.4375 
Q 25.25 74.21875 29.59375 74.21875 
Q 40.828125 74.21875 47.359375 69.109375 
Q 53.90625 64.015625 53.90625 55.328125 
Q 53.90625 49.265625 50.4375 45.09375 
Q 46.96875 40.921875 40.578125 39.3125 
z
" id="DejaVuSans-51"/>
       <path d="M 8.203125 72.90625 
L 55.078125 72.90625 
L 55.078125 68.703125 
L 28.609375 0 
L 18.3125 0 
L 43.21875 64.59375 
L 8.203125 64.59375 
z
" id="DejaVuSans-55"/>
       <path d="M 48.78125 52.59375 
L 48.78125 44.1875 
Q 44.96875 46.296875 41.140625 47.34375 
Q 37.3125 48.390625 33.40625 48.390625 
Q 24.65625 48.390625 19.8125 42.84375 
Q 14.984375 37.3125 14.984375 27.296875 
Q 14.984375 17.28125 19.8125 11.734375 
Q 24.65625 6.203125 33.40625 6.203125 
Q 37.3125 6.203125 41.140625 7.25 
Q 44.96875 8.296875 48.78125 10.40625 
L 48.78125 2.09375 
Q 45.015625 0.34375 40.984375 -0.53125 
Q 36.96875 -1.421875 32.421875 -1.421875 
Q 20.0625 -1.421875 12.78125 6.34375 
Q 5.515625 14.109375 5.515625 27.296875 
Q 5.515625 40.671875 12.859375 48.328125 
Q 20.21875 56 33.015625 56 
Q 37.15625 56 41.109375 55.140625 
Q 45.0625 54.296875 48.78125 52.59375 
z
" id="DejaVuSans-99"/>
       <path d="M 37.109375 75.984375 
L 37.109375 68.5 
L 28.515625 68.5 
Q 23.6875 68.5 21.796875 66.546875 
Q 19.921875 64.59375 19.921875 59.515625 
L 19.921875 54.6875 
L 34.71875 54.6875 
L 34.71875 47.703125 
L 19.921875 47.703125 
L 19.921875 0 
L 10.890625 0 
L 10.890625 47.703125 
L 2.296875 47.703125 
L 2.296875 54.6875 
L 10.890625 54.6875 
L 10.890625 58.5 
Q 10.890625 67.625 15.140625 71.796875 
Q 19.390625 75.984375 28.609375 75.984375 
z
" id="DejaVuSans-102"/>
      </defs>
      <g transform="translate(82.600864 272.856774)rotate(-70)scale(0.1 -0.1)">
       <use xlink:href="#DejaVuSans-53"/>
       <use x="63.623047" xlink:href="#DejaVuSans-49"/>
       <use x="127.246094" xlink:href="#DejaVuSans-56"/>
       <use x="190.869141" xlink:href="#DejaVuSans-51"/>
       <use x="254.492188" xlink:href="#DejaVuSans-55"/>
       <use x="318.115234" xlink:href="#DejaVuSans-99"/>
       <use x="373.095703" xlink:href="#DejaVuSans-102"/>
      </g>
     </g>
    </g>
    <g id="xtick_2">
     <g id="line2d_2">
      <g>
       <use style="stroke:#000000;stroke-width:0.8;" x="120.457424" xlink:href="#md6210c36c8" y="224.889131"/>
      </g>
     </g>
     <g id="text_2">
      <!-- a087626 -->
      <defs>
       <path d="M 34.28125 27.484375 
Q 23.390625 27.484375 19.1875 25 
Q 14.984375 22.515625 14.984375 16.5 
Q 14.984375 11.71875 18.140625 8.90625 
Q 21.296875 6.109375 26.703125 6.109375 
Q 34.1875 6.109375 38.703125 11.40625 
Q 43.21875 16.703125 43.21875 25.484375 
L 43.21875 27.484375 
z
M 52.203125 31.203125 
L 52.203125 0 
L 43.21875 0 
L 43.21875 8.296875 
Q 40.140625 3.328125 35.546875 0.953125 
Q 30.953125 -1.421875 24.3125 -1.421875 
Q 15.921875 -1.421875 10.953125 3.296875 
Q 6 8.015625 6 15.921875 
Q 6 25.140625 12.171875 29.828125 
Q 18.359375 34.515625 30.609375 34.515625 
L 43.21875 34.515625 
L 43.21875 35.40625 
Q 43.21875 41.609375 39.140625 45 
Q 35.0625 48.390625 27.6875 48.390625 
Q 23 48.390625 18.546875 47.265625 
Q 14.109375 46.140625 10.015625 43.890625 
L 10.015625 52.203125 
Q 14.9375 54.109375 19.578125 55.046875 
Q 24.21875 56 28.609375 56 
Q 40.484375 56 46.34375 49.84375 
Q 52.203125 43.703125 52.203125 31.203125 
z
" id="DejaVuSans-97"/>
       <path d="M 31.78125 66.40625 
Q 24.171875 66.40625 20.328125 58.90625 
Q 16.5 51.421875 16.5 36.375 
Q 16.5 21.390625 20.328125 13.890625 
Q 24.171875 6.390625 31.78125 6.390625 
Q 39.453125 6.390625 43.28125 13.890625 
Q 47.125 21.390625 47.125 36.375 
Q 47.125 51.421875 43.28125 58.90625 
Q 39.453125 66.40625 31.78125 66.40625 
z
M 31.78125 74.21875 
Q 44.046875 74.21875 50.515625 64.515625 
Q 56.984375 54.828125 56.984375 36.375 
Q 56.984375 17.96875 50.515625 8.265625 
Q 44.046875 -1.421875 31.78125 -1.421875 
Q 19.53125 -1.421875 13.0625 8.265625 
Q 6.59375 17.96875 6.59375 36.375 
Q 6.59375 54.828125 13.0625 64.515625 
Q 19.53125 74.21875 31.78125 74.21875 
z
" id="DejaVuSans-48"/>
       <path d="M 33.015625 40.375 
Q 26.375 40.375 22.484375 35.828125 
Q 18.609375 31.296875 18.609375 23.390625 
Q 18.609375 15.53125 22.484375 10.953125 
Q 26.375 6.390625 33.015625 6.390625 
Q 39.65625 6.390625 43.53125 10.953125 
Q 47.40625 15.53125 47.40625 23.390625 
Q 47.40625 31.296875 43.53125 35.828125 
Q 39.65625 40.375 33.015625 40.375 
z
M 52.59375 71.296875 
L 52.59375 62.3125 
Q 48.875 64.0625 45.09375 64.984375 
Q 41.3125 65.921875 37.59375 65.921875 
Q 27.828125 65.921875 22.671875 59.328125 
Q 17.53125 52.734375 16.796875 39.40625 
Q 19.671875 43.65625 24.015625 45.921875 
Q 28.375 48.1875 33.59375 48.1875 
Q 44.578125 48.1875 50.953125 41.515625 
Q 57.328125 34.859375 57.328125 23.390625 
Q 57.328125 12.15625 50.6875 5.359375 
Q 44.046875 -1.421875 33.015625 -1.421875 
Q 20.359375 -1.421875 13.671875 8.265625 
Q 6.984375 17.96875 6.984375 36.375 
Q 6.984375 53.65625 15.1875 63.9375 
Q 23.390625 74.21875 37.203125 74.21875 
Q 40.921875 74.21875 44.703125 73.484375 
Q 48.484375 72.75 52.59375 71.296875 
z
" id="DejaVuSans-54"/>
       <path d="M 19.1875 8.296875 
L 53.609375 8.296875 
L 53.609375 0 
L 7.328125 0 
L 7.328125 8.296875 
Q 12.9375 14.109375 22.625 23.890625 
Q 32.328125 33.6875 34.8125 36.53125 
Q 39.546875 41.84375 41.421875 45.53125 
Q 43.3125 49.21875 43.3125 52.78125 
Q 43.3125 58.59375 39.234375 62.25 
Q 35.15625 65.921875 28.609375 65.921875 
Q 23.96875 65.921875 18.8125 64.3125 
Q 13.671875 62.703125 7.8125 59.421875 
L 7.8125 69.390625 
Q 13.765625 71.78125 18.9375 73 
Q 24.125 74.21875 28.421875 74.21875 
Q 39.75 74.21875 46.484375 68.546875 
Q 53.21875 62.890625 53.21875 53.421875 
Q 53.21875 48.921875 51.53125 44.890625 
Q 49.859375 40.875 45.40625 35.40625 
Q 44.1875 33.984375 37.640625 27.21875 
Q 31.109375 20.453125 19.1875 8.296875 
z
" id="DejaVuSans-50"/>
      </defs>
      <g transform="translate(115.474108 276.119269)rotate(-70)scale(0.1 -0.1)">
       <use xlink:href="#DejaVuSans-97"/>
       <use x="61.279297" xlink:href="#DejaVuSans-48"/>
       <use x="124.902344" xlink:href="#DejaVuSans-56"/>
       <use x="188.525391" xlink:href="#DejaVuSans-55"/>
       <use x="252.148438" xlink:href="#DejaVuSans-54"/>
       <use x="315.771484" xlink:href="#DejaVuSans-50"/>
       <use x="379.394531" xlink:href="#DejaVuSans-54"/>
      </g>
     </g>
    </g>
    <g id="xtick_3">
     <g id="line2d_3">
      <g>
       <use style="stroke:#000000;stroke-width:0.8;" x="153.924394" xlink:href="#md6210c36c8" y="224.889131"/>
      </g>
     </g>
     <g id="text_3">
      <!-- cb4e46a -->
      <defs>
       <path d="M 48.6875 27.296875 
Q 48.6875 37.203125 44.609375 42.84375 
Q 40.53125 48.484375 33.40625 48.484375 
Q 26.265625 48.484375 22.1875 42.84375 
Q 18.109375 37.203125 18.109375 27.296875 
Q 18.109375 17.390625 22.1875 11.75 
Q 26.265625 6.109375 33.40625 6.109375 
Q 40.53125 6.109375 44.609375 11.75 
Q 48.6875 17.390625 48.6875 27.296875 
z
M 18.109375 46.390625 
Q 20.953125 51.265625 25.265625 53.625 
Q 29.59375 56 35.59375 56 
Q 45.5625 56 51.78125 48.09375 
Q 58.015625 40.1875 58.015625 27.296875 
Q 58.015625 14.40625 51.78125 6.484375 
Q 45.5625 -1.421875 35.59375 -1.421875 
Q 29.59375 -1.421875 25.265625 0.953125 
Q 20.953125 3.328125 18.109375 8.203125 
L 18.109375 0 
L 9.078125 0 
L 9.078125 75.984375 
L 18.109375 75.984375 
z
" id="DejaVuSans-98"/>
       <path d="M 37.796875 64.3125 
L 12.890625 25.390625 
L 37.796875 25.390625 
z
M 35.203125 72.90625 
L 47.609375 72.90625 
L 47.609375 25.390625 
L 58.015625 25.390625 
L 58.015625 17.1875 
L 47.609375 17.1875 
L 47.609375 0 
L 37.796875 0 
L 37.796875 17.1875 
L 4.890625 17.1875 
L 4.890625 26.703125 
z
" id="DejaVuSans-52"/>
       <path d="M 56.203125 29.59375 
L 56.203125 25.203125 
L 14.890625 25.203125 
Q 15.484375 15.921875 20.484375 11.0625 
Q 25.484375 6.203125 34.421875 6.203125 
Q 39.59375 6.203125 44.453125 7.46875 
Q 49.3125 8.734375 54.109375 11.28125 
L 54.109375 2.78125 
Q 49.265625 0.734375 44.1875 -0.34375 
Q 39.109375 -1.421875 33.890625 -1.421875 
Q 20.796875 -1.421875 13.15625 6.1875 
Q 5.515625 13.8125 5.515625 26.8125 
Q 5.515625 40.234375 12.765625 48.109375 
Q 20.015625 56 32.328125 56 
Q 43.359375 56 49.78125 48.890625 
Q 56.203125 41.796875 56.203125 29.59375 
z
M 47.21875 32.234375 
Q 47.125 39.59375 43.09375 43.984375 
Q 39.0625 48.390625 32.421875 48.390625 
Q 24.90625 48.390625 20.390625 44.140625 
Q 15.875 39.890625 15.1875 32.171875 
z
" id="DejaVuSans-101"/>
      </defs>
      <g transform="translate(149.127051 275.097353)rotate(-70)scale(0.1 -0.1)">
       <use xlink:href="#DejaVuSans-99"/>
       <use x="54.980469" xlink:href="#DejaVuSans-98"/>
       <use x="118.457031" xlink:href="#DejaVuSans-52"/>
       <use x="182.080078" xlink:href="#DejaVuSans-101"/>
       <use x="243.603516" xlink:href="#DejaVuSans-52"/>
       <use x="307.226562" xlink:href="#DejaVuSans-54"/>
       <use x="370.849609" xlink:href="#DejaVuSans-97"/>
      </g>
     </g>
    </g>
    <g id="xtick_4">
     <g id="line2d_4">
      <g>
       <use style="stroke:#000000;stroke-width:0.8;" x="187.391364" xlink:href="#md6210c36c8" y="224.889131"/>
      </g>
     </g>
     <g id="text_4">
      <!-- 0bb0082 -->
      <g transform="translate(182.372777 276.313081)rotate(-70)scale(0.1 -0.1)">
       <use xlink:href="#DejaVuSans-48"/>
       <use x="63.623047" xlink:href="#DejaVuSans-98"/>
       <use x="127.099609" xlink:href="#DejaVuSans-98"/>
       <use x="190.576172" xlink:href="#DejaVuSans-48"/>
       <use x="254.199219" xlink:href="#DejaVuSans-48"/>
       <use x="317.822266" xlink:href="#DejaVuSans-56"/>
       <use x="381.445312" xlink:href="#DejaVuSans-50"/>
      </g>
     </g>
    </g>
    <g id="xtick_5">
     <g id="line2d_5">
      <g>
       <use style="stroke:#000000;stroke-width:0.8;" x="220.858333" xlink:href="#md6210c36c8" y="224.889131"/>
      </g>
     </g>
     <g id="text_5">
      <!-- 4dcf6d0 -->
      <defs>
       <path d="M 45.40625 46.390625 
L 45.40625 75.984375 
L 54.390625 75.984375 
L 54.390625 0 
L 45.40625 0 
L 45.40625 8.203125 
Q 42.578125 3.328125 38.25 0.953125 
Q 33.9375 -1.421875 27.875 -1.421875 
Q 17.96875 -1.421875 11.734375 6.484375 
Q 5.515625 14.40625 5.515625 27.296875 
Q 5.515625 40.1875 11.734375 48.09375 
Q 17.96875 56 27.875 56 
Q 33.9375 56 38.25 53.625 
Q 42.578125 51.265625 45.40625 46.390625 
z
M 14.796875 27.296875 
Q 14.796875 17.390625 18.875 11.75 
Q 22.953125 6.109375 30.078125 6.109375 
Q 37.203125 6.109375 41.296875 11.75 
Q 45.40625 17.390625 45.40625 27.296875 
Q 45.40625 37.203125 41.296875 42.84375 
Q 37.203125 48.484375 30.078125 48.484375 
Q 22.953125 48.484375 18.875 42.84375 
Q 14.796875 37.203125 14.796875 27.296875 
z
" id="DejaVuSans-100"/>
      </defs>
      <g transform="translate(216.473552 272.830345)rotate(-70)scale(0.1 -0.1)">
       <use xlink:href="#DejaVuSans-52"/>
       <use x="63.623047" xlink:href="#DejaVuSans-100"/>
       <use x="127.099609" xlink:href="#DejaVuSans-99"/>
       <use x="182.080078" xlink:href="#DejaVuSans-102"/>
       <use x="217.285156" xlink:href="#DejaVuSans-54"/>
       <use x="280.908203" xlink:href="#DejaVuSans-100"/>
       <use x="344.384766" xlink:href="#DejaVuSans-48"/>
      </g>
     </g>
    </g>
    <g id="xtick_6">
     <g id="line2d_6">
      <g>
       <use style="stroke:#000000;stroke-width:0.8;" x="254.325303" xlink:href="#md6210c36c8" y="224.889131"/>
      </g>
     </g>
     <g id="text_6">
      <!-- 83f96d9 -->
      <defs>
       <path d="M 10.984375 1.515625 
L 10.984375 10.5 
Q 14.703125 8.734375 18.5 7.8125 
Q 22.3125 6.890625 25.984375 6.890625 
Q 35.75 6.890625 40.890625 13.453125 
Q 46.046875 20.015625 46.78125 33.40625 
Q 43.953125 29.203125 39.59375 26.953125 
Q 35.25 24.703125 29.984375 24.703125 
Q 19.046875 24.703125 12.671875 31.3125 
Q 6.296875 37.9375 6.296875 49.421875 
Q 6.296875 60.640625 12.9375 67.421875 
Q 19.578125 74.21875 30.609375 74.21875 
Q 43.265625 74.21875 49.921875 64.515625 
Q 56.59375 54.828125 56.59375 36.375 
Q 56.59375 19.140625 48.40625 8.859375 
Q 40.234375 -1.421875 26.421875 -1.421875 
Q 22.703125 -1.421875 18.890625 -0.6875 
Q 15.09375 0.046875 10.984375 1.515625 
z
M 30.609375 32.421875 
Q 37.25 32.421875 41.125 36.953125 
Q 45.015625 41.5 45.015625 49.421875 
Q 45.015625 57.28125 41.125 61.84375 
Q 37.25 66.40625 30.609375 66.40625 
Q 23.96875 66.40625 20.09375 61.84375 
Q 16.21875 57.28125 16.21875 49.421875 
Q 16.21875 41.5 20.09375 36.953125 
Q 23.96875 32.421875 30.609375 32.421875 
z
" id="DejaVuSans-57"/>
      </defs>
      <g transform="translate(249.790354 273.655512)rotate(-70)scale(0.1 -0.1)">
       <use xlink:href="#DejaVuSans-56"/>
       <use x="63.623047" xlink:href="#DejaVuSans-51"/>
       <use x="127.246094" xlink:href="#DejaVuSans-102"/>
       <use x="162.451172" xlink:href="#DejaVuSans-57"/>
       <use x="226.074219" xlink:href="#DejaVuSans-54"/>
       <use x="289.697266" xlink:href="#DejaVuSans-100"/>
       <use x="353.173828" xlink:href="#DejaVuSans-57"/>
      </g>
     </g>
    </g>
    <g id="xtick_7">
     <g id="line2d_7">
      <g>
       <use style="stroke:#000000;stroke-width:0.8;" x="287.792273" xlink:href="#md6210c36c8" y="224.889131"/>
      </g>
     </g>
     <g id="text_7">
      <!-- fc546f0 -->
      <g transform="translate(283.888725 270.185991)rotate(-70)scale(0.1 -0.1)">
       <use xlink:href="#DejaVuSans-102"/>
       <use x="35.205078" xlink:href="#DejaVuSans-99"/>
       <use x="90.185547" xlink:href="#DejaVuSans-53"/>
       <use x="153.808594" xlink:href="#DejaVuSans-52"/>
       <use x="217.431641" xlink:href="#DejaVuSans-54"/>
       <use x="281.054688" xlink:href="#DejaVuSans-102"/>
       <use x="316.259766" xlink:href="#DejaVuSans-48"/>
      </g>
     </g>
    </g>
    <g id="xtick_8">
     <g id="line2d_8">
      <g>
       <use style="stroke:#000000;stroke-width:0.8;" x="321.259242" xlink:href="#md6210c36c8" y="224.889131"/>
      </g>
     </g>
     <g id="text_8">
      <!-- 3aab341 -->
      <g transform="translate(316.318411 275.885814)rotate(-70)scale(0.1 -0.1)">
       <use xlink:href="#DejaVuSans-51"/>
       <use x="63.623047" xlink:href="#DejaVuSans-97"/>
       <use x="124.902344" xlink:href="#DejaVuSans-97"/>
       <use x="186.181641" xlink:href="#DejaVuSans-98"/>
       <use x="249.658203" xlink:href="#DejaVuSans-51"/>
       <use x="313.28125" xlink:href="#DejaVuSans-52"/>
       <use x="376.904297" xlink:href="#DejaVuSans-49"/>
      </g>
     </g>
    </g>
    <g id="xtick_9">
     <g id="line2d_9">
      <g>
       <use style="stroke:#000000;stroke-width:0.8;" x="354.726212" xlink:href="#md6210c36c8" y="224.889131"/>
      </g>
     </g>
     <g id="text_9">
      <!-- 17f9287 -->
      <g transform="translate(350.188858 273.668727)rotate(-70)scale(0.1 -0.1)">
       <use xlink:href="#DejaVuSans-49"/>
       <use x="63.623047" xlink:href="#DejaVuSans-55"/>
       <use x="127.246094" xlink:href="#DejaVuSans-102"/>
       <use x="162.451172" xlink:href="#DejaVuSans-57"/>
       <use x="226.074219" xlink:href="#DejaVuSans-50"/>
       <use x="289.697266" xlink:href="#DejaVuSans-56"/>
       <use x="353.320312" xlink:href="#DejaVuSans-55"/>
      </g>
     </g>
    </g>
    <g id="xtick_10">
     <g id="line2d_10">
      <g>
       <use style="stroke:#000000;stroke-width:0.8;" x="388.193182" xlink:href="#md6210c36c8" y="224.889131"/>
      </g>
     </g>
     <g id="text_10">
      <!-- 49150fb -->
      <g transform="translate(383.658233 273.655512)rotate(-70)scale(0.1 -0.1)">
       <use xlink:href="#DejaVuSans-52"/>
       <use x="63.623047" xlink:href="#DejaVuSans-57"/>
       <use x="127.246094" xlink:href="#DejaVuSans-49"/>
       <use x="190.869141" xlink:href="#DejaVuSans-53"/>
       <use x="254.492188" xlink:href="#DejaVuSans-48"/>
       <use x="318.115234" xlink:href="#DejaVuSans-102"/>
       <use x="353.320312" xlink:href="#DejaVuSans-98"/>
      </g>
     </g>
    </g>
    <g id="xtick_11">
     <g id="line2d_11">
      <g>
       <use style="stroke:#000000;stroke-width:0.8;" x="421.660152" xlink:href="#md6210c36c8" y="224.889131"/>
      </g>
     </g>
     <g id="text_11">
      <!-- 1878564 -->
      <g transform="translate(416.636755 276.339509)rotate(-70)scale(0.1 -0.1)">
       <use xlink:href="#DejaVuSans-49"/>
       <use x="63.623047" xlink:href="#DejaVuSans-56"/>
       <use x="127.246094" xlink:href="#DejaVuSans-55"/>
       <use x="190.869141" xlink:href="#DejaVuSans-56"/>
       <use x="254.492188" xlink:href="#DejaVuSans-53"/>
       <use x="318.115234" xlink:href="#DejaVuSans-54"/>
       <use x="381.738281" xlink:href="#DejaVuSans-52"/>
      </g>
     </g>
    </g>
    <g id="xtick_12">
     <g id="line2d_12">
      <g>
       <use style="stroke:#000000;stroke-width:0.8;" x="455.127121" xlink:href="#md6210c36c8" y="224.889131"/>
      </g>
     </g>
     <g id="text_12">
      <!-- 9095bfa -->
      <g transform="translate(450.632252 273.435272)rotate(-70)scale(0.1 -0.1)">
       <use xlink:href="#DejaVuSans-57"/>
       <use x="63.623047" xlink:href="#DejaVuSans-48"/>
       <use x="127.246094" xlink:href="#DejaVuSans-57"/>
       <use x="190.869141" xlink:href="#DejaVuSans-53"/>
       <use x="254.492188" xlink:href="#DejaVuSans-98"/>
       <use x="317.96875" xlink:href="#DejaVuSans-102"/>
       <use x="353.173828" xlink:href="#DejaVuSans-97"/>
      </g>
     </g>
    </g>
    <g id="xtick_13">
     <g id="line2d_13">
      <g>
       <use style="stroke:#000000;stroke-width:0.8;" x="488.594091" xlink:href="#md6210c36c8" y="224.889131"/>
      </g>
     </g>
     <g id="text_13">
      <!-- f7e7791 -->
      <g transform="translate(484.092542 273.471979)rotate(-70)scale(0.1 -0.1)">
       <use xlink:href="#DejaVuSans-102"/>
       <use x="35.205078" xlink:href="#DejaVuSans-55"/>
       <use x="98.828125" xlink:href="#DejaVuSans-101"/>
       <use x="160.351562" xlink:href="#DejaVuSans-55"/>
       <use x="223.974609" xlink:href="#DejaVuSans-55"/>
       <use x="287.597656" xlink:href="#DejaVuSans-57"/>
       <use x="351.220703" xlink:href="#DejaVuSans-49"/>
      </g>
     </g>
    </g>
    <g id="xtick_14">
     <g id="line2d_14">
      <g>
       <use style="stroke:#000000;stroke-width:0.8;" x="522.061061" xlink:href="#md6210c36c8" y="224.889131"/>
      </g>
     </g>
     <g id="text_14">
      <!-- 8ca5ef0 -->
      <g transform="translate(517.747356 272.439785)rotate(-70)scale(0.1 -0.1)">
       <use xlink:href="#DejaVuSans-56"/>
       <use x="63.623047" xlink:href="#DejaVuSans-99"/>
       <use x="118.603516" xlink:href="#DejaVuSans-97"/>
       <use x="179.882812" xlink:href="#DejaVuSans-53"/>
       <use x="243.505859" xlink:href="#DejaVuSans-101"/>
       <use x="305.029297" xlink:href="#DejaVuSans-102"/>
       <use x="340.234375" xlink:href="#DejaVuSans-48"/>
      </g>
     </g>
    </g>
    <g id="xtick_15">
     <g id="line2d_15">
      <g>
       <use style="stroke:#000000;stroke-width:0.8;" x="555.52803" xlink:href="#md6210c36c8" y="224.889131"/>
      </g>
     </g>
     <g id="text_15">
      <!-- a5b40c1 -->
      <g transform="translate(550.694882 275.294101)rotate(-70)scale(0.1 -0.1)">
       <use xlink:href="#DejaVuSans-97"/>
       <use x="61.279297" xlink:href="#DejaVuSans-53"/>
       <use x="124.902344" xlink:href="#DejaVuSans-98"/>
       <use x="188.378906" xlink:href="#DejaVuSans-52"/>
       <use x="252.001953" xlink:href="#DejaVuSans-48"/>
       <use x="315.625" xlink:href="#DejaVuSans-99"/>
       <use x="370.605469" xlink:href="#DejaVuSans-49"/>
      </g>
     </g>
    </g>
    <g id="xtick_16">
     <g id="line2d_16">
      <g>
       <use style="stroke:#000000;stroke-width:0.8;" x="588.995" xlink:href="#md6210c36c8" y="224.889131"/>
      </g>
     </g>
     <g id="text_16">
      <!-- 72c6d8f -->
      <g transform="translate(584.607814 272.843559)rotate(-70)scale(0.1 -0.1)">
       <use xlink:href="#DejaVuSans-55"/>
       <use x="63.623047" xlink:href="#DejaVuSans-50"/>
       <use x="127.246094" xlink:href="#DejaVuSans-99"/>
       <use x="182.226562" xlink:href="#DejaVuSans-54"/>
       <use x="245.849609" xlink:href="#DejaVuSans-100"/>
       <use x="309.326172" xlink:href="#DejaVuSans-56"/>
       <use x="372.949219" xlink:href="#DejaVuSans-102"/>
      </g>
     </g>
    </g>
    <g id="xtick_17">
     <g id="line2d_17">
      <g>
       <use style="stroke:#000000;stroke-width:0.8;" x="622.46197" xlink:href="#md6210c36c8" y="224.889131"/>
      </g>
     </g>
     <g id="text_17">
      <!-- e64bc7a -->
      <g transform="translate(617.664627 275.097353)rotate(-70)scale(0.1 -0.1)">
       <use xlink:href="#DejaVuSans-101"/>
       <use x="61.523438" xlink:href="#DejaVuSans-54"/>
       <use x="125.146484" xlink:href="#DejaVuSans-52"/>
       <use x="188.769531" xlink:href="#DejaVuSans-98"/>
       <use x="252.246094" xlink:href="#DejaVuSans-99"/>
       <use x="307.226562" xlink:href="#DejaVuSans-55"/>
       <use x="370.849609" xlink:href="#DejaVuSans-97"/>
      </g>
     </g>
    </g>
    <g id="xtick_18">
     <g id="line2d_18">
      <g>
       <use style="stroke:#000000;stroke-width:0.8;" x="655.928939" xlink:href="#md6210c36c8" y="224.889131"/>
      </g>
     </g>
     <g id="text_18">
      <!-- e3ab1aa -->
      <g transform="translate(651.063994 275.468826)rotate(-70)scale(0.1 -0.1)">
       <use xlink:href="#DejaVuSans-101"/>
       <use x="61.523438" xlink:href="#DejaVuSans-51"/>
       <use x="125.146484" xlink:href="#DejaVuSans-97"/>
       <use x="186.425781" xlink:href="#DejaVuSans-98"/>
       <use x="249.902344" xlink:href="#DejaVuSans-49"/>
       <use x="313.525391" xlink:href="#DejaVuSans-97"/>
       <use x="374.804688" xlink:href="#DejaVuSans-97"/>
      </g>
     </g>
    </g>
    <g id="xtick_19">
     <g id="line2d_19">
      <g>
       <use style="stroke:#000000;stroke-width:0.8;" x="689.395909" xlink:href="#md6210c36c8" y="224.889131"/>
      </g>
     </g>
     <g id="text_19">
      <!-- 5583462 -->
      <g transform="translate(684.372512 276.339509)rotate(-70)scale(0.1 -0.1)">
       <use xlink:href="#DejaVuSans-53"/>
       <use x="63.623047" xlink:href="#DejaVuSans-53"/>
       <use x="127.246094" xlink:href="#DejaVuSans-56"/>
       <use x="190.869141" xlink:href="#DejaVuSans-51"/>
       <use x="254.492188" xlink:href="#DejaVuSans-52"/>
       <use x="318.115234" xlink:href="#DejaVuSans-54"/>
       <use x="381.738281" xlink:href="#DejaVuSans-50"/>
      </g>
     </g>
    </g>
    <g id="xtick_20">
     <g id="line2d_20">
      <g>
       <use style="stroke:#000000;stroke-width:0.8;" x="722.862879" xlink:href="#md6210c36c8" y="224.889131"/>
      </g>
     </g>
     <g id="text_20">
      <!-- 0ac92e4 -->
      <g transform="translate(718.063131 275.110568)rotate(-70)scale(0.1 -0.1)">
       <use xlink:href="#DejaVuSans-48"/>
       <use x="63.623047" xlink:href="#DejaVuSans-97"/>
       <use x="124.902344" xlink:href="#DejaVuSans-99"/>
       <use x="179.882812" xlink:href="#DejaVuSans-57"/>
       <use x="243.505859" xlink:href="#DejaVuSans-50"/>
       <use x="307.128906" xlink:href="#DejaVuSans-101"/>
       <use x="368.652344" xlink:href="#DejaVuSans-52"/>
      </g>
     </g>
    </g>
    <g id="xtick_21">
     <g id="line2d_21">
      <g>
       <use style="stroke:#000000;stroke-width:0.8;" x="756.329848" xlink:href="#md6210c36c8" y="224.889131"/>
      </g>
     </g>
     <g id="text_21">
      <!-- 2d398c1 -->
      <g transform="translate(751.45662 275.514342)rotate(-70)scale(0.1 -0.1)">
       <use xlink:href="#DejaVuSans-50"/>
       <use x="63.623047" xlink:href="#DejaVuSans-100"/>
       <use x="127.099609" xlink:href="#DejaVuSans-51"/>
       <use x="190.722656" xlink:href="#DejaVuSans-57"/>
       <use x="254.345703" xlink:href="#DejaVuSans-56"/>
       <use x="317.96875" xlink:href="#DejaVuSans-99"/>
       <use x="372.949219" xlink:href="#DejaVuSans-49"/>
      </g>
     </g>
    </g>
    <g id="xtick_22">
     <g id="line2d_22">
      <g>
       <use style="stroke:#000000;stroke-width:0.8;" x="789.796818" xlink:href="#md6210c36c8" y="224.889131"/>
      </g>
     </g>
     <g id="text_22">
      <!-- b6837b1 -->
      <g transform="translate(784.778231 276.313081)rotate(-70)scale(0.1 -0.1)">
       <use xlink:href="#DejaVuSans-98"/>
       <use x="63.476562" xlink:href="#DejaVuSans-54"/>
       <use x="127.099609" xlink:href="#DejaVuSans-56"/>
       <use x="190.722656" xlink:href="#DejaVuSans-51"/>
       <use x="254.345703" xlink:href="#DejaVuSans-55"/>
       <use x="317.96875" xlink:href="#DejaVuSans-98"/>
       <use x="381.445312" xlink:href="#DejaVuSans-49"/>
      </g>
     </g>
    </g>
    <g id="xtick_23">
     <g id="line2d_23">
      <g>
       <use style="stroke:#000000;stroke-width:0.8;" x="823.263788" xlink:href="#md6210c36c8" y="224.889131"/>
      </g>
     </g>
     <g id="text_23">
      <!-- cfee124 -->
      <g transform="translate(818.945808 272.463277)rotate(-70)scale(0.1 -0.1)">
       <use xlink:href="#DejaVuSans-99"/>
       <use x="54.980469" xlink:href="#DejaVuSans-102"/>
       <use x="90.185547" xlink:href="#DejaVuSans-101"/>
       <use x="151.708984" xlink:href="#DejaVuSans-101"/>
       <use x="213.232422" xlink:href="#DejaVuSans-49"/>
       <use x="276.855469" xlink:href="#DejaVuSans-50"/>
       <use x="340.478516" xlink:href="#DejaVuSans-52"/>
      </g>
     </g>
    </g>
    <g id="xtick_24">
     <g id="line2d_24">
      <g>
       <use style="stroke:#000000;stroke-width:0.8;" x="856.730758" xlink:href="#md6210c36c8" y="224.889131"/>
      </g>
     </g>
     <g id="text_24">
      <!-- 5676ab8 -->
      <g transform="translate(851.749846 276.106055)rotate(-70)scale(0.1 -0.1)">
       <use xlink:href="#DejaVuSans-53"/>
       <use x="63.623047" xlink:href="#DejaVuSans-54"/>
       <use x="127.246094" xlink:href="#DejaVuSans-55"/>
       <use x="190.869141" xlink:href="#DejaVuSans-54"/>
       <use x="254.492188" xlink:href="#DejaVuSans-97"/>
       <use x="315.771484" xlink:href="#DejaVuSans-98"/>
       <use x="379.248047" xlink:href="#DejaVuSans-56"/>
      </g>
     </g>
    </g>
    <g id="xtick_25">
     <g id="line2d_25">
      <g>
       <use style="stroke:#000000;stroke-width:0.8;" x="890.197727" xlink:href="#md6210c36c8" y="224.889131"/>
      </g>
     </g>
     <g id="text_25">
      <!-- a419c34 -->
      <g transform="translate(885.362174 275.307316)rotate(-70)scale(0.1 -0.1)">
       <use xlink:href="#DejaVuSans-97"/>
       <use x="61.279297" xlink:href="#DejaVuSans-52"/>
       <use x="124.902344" xlink:href="#DejaVuSans-49"/>
       <use x="188.525391" xlink:href="#DejaVuSans-57"/>
       <use x="252.148438" xlink:href="#DejaVuSans-99"/>
       <use x="307.128906" xlink:href="#DejaVuSans-51"/>
       <use x="370.751953" xlink:href="#DejaVuSans-52"/>
      </g>
     </g>
    </g>
    <g id="xtick_26">
     <g id="line2d_26">
      <g>
       <use style="stroke:#000000;stroke-width:0.8;" x="923.664697" xlink:href="#md6210c36c8" y="224.889131"/>
      </g>
     </g>
     <g id="text_26">
      <!-- ca9ad83 -->
      <g transform="translate(918.871629 275.073861)rotate(-70)scale(0.1 -0.1)">
       <use xlink:href="#DejaVuSans-99"/>
       <use x="54.980469" xlink:href="#DejaVuSans-97"/>
       <use x="116.259766" xlink:href="#DejaVuSans-57"/>
       <use x="179.882812" xlink:href="#DejaVuSans-97"/>
       <use x="241.162109" xlink:href="#DejaVuSans-100"/>
       <use x="304.638672" xlink:href="#DejaVuSans-56"/>
       <use x="368.261719" xlink:href="#DejaVuSans-51"/>
      </g>
     </g>
    </g>
    <g id="xtick_27">
     <g id="line2d_27">
      <g>
       <use style="stroke:#000000;stroke-width:0.8;" x="957.131667" xlink:href="#md6210c36c8" y="224.889131"/>
      </g>
     </g>
     <g id="text_27">
      <!-- c35b27e -->
      <g transform="translate(952.294243 275.317594)rotate(-70)scale(0.1 -0.1)">
       <use xlink:href="#DejaVuSans-99"/>
       <use x="54.980469" xlink:href="#DejaVuSans-51"/>
       <use x="118.603516" xlink:href="#DejaVuSans-53"/>
       <use x="182.226562" xlink:href="#DejaVuSans-98"/>
       <use x="245.703125" xlink:href="#DejaVuSans-50"/>
       <use x="309.326172" xlink:href="#DejaVuSans-55"/>
       <use x="372.949219" xlink:href="#DejaVuSans-101"/>
      </g>
     </g>
    </g>
    <g id="xtick_28">
     <g id="line2d_28">
      <g>
       <use style="stroke:#000000;stroke-width:0.8;" x="990.598636" xlink:href="#md6210c36c8" y="224.889131"/>
      </g>
     </g>
     <g id="text_28">
      <!-- 394a007 -->
      <g transform="translate(985.61532 276.119269)rotate(-70)scale(0.1 -0.1)">
       <use xlink:href="#DejaVuSans-51"/>
       <use x="63.623047" xlink:href="#DejaVuSans-57"/>
       <use x="127.246094" xlink:href="#DejaVuSans-52"/>
       <use x="190.869141" xlink:href="#DejaVuSans-97"/>
       <use x="252.148438" xlink:href="#DejaVuSans-48"/>
       <use x="315.771484" xlink:href="#DejaVuSans-48"/>
       <use x="379.394531" xlink:href="#DejaVuSans-55"/>
      </g>
     </g>
    </g>
    <g id="xtick_29">
     <g id="line2d_29">
      <g>
       <use style="stroke:#000000;stroke-width:0.8;" x="1024.065606" xlink:href="#md6210c36c8" y="224.889131"/>
      </g>
     </g>
     <g id="text_29">
      <!-- 5fdf67a -->
      <g transform="translate(1020.05678 270.764489)rotate(-70)scale(0.1 -0.1)">
       <use xlink:href="#DejaVuSans-53"/>
       <use x="63.623047" xlink:href="#DejaVuSans-102"/>
       <use x="98.828125" xlink:href="#DejaVuSans-100"/>
       <use x="162.304688" xlink:href="#DejaVuSans-102"/>
       <use x="197.509766" xlink:href="#DejaVuSans-54"/>
       <use x="261.132812" xlink:href="#DejaVuSans-55"/>
       <use x="324.755859" xlink:href="#DejaVuSans-97"/>
      </g>
     </g>
    </g>
    <g id="xtick_30">
     <g id="line2d_30">
      <g>
       <use style="stroke:#000000;stroke-width:0.8;" x="1057.532576" xlink:href="#md6210c36c8" y="224.889131"/>
      </g>
     </g>
     <g id="text_30">
      <!-- 15b940d -->
      <g transform="translate(1052.513989 276.313081)rotate(-70)scale(0.1 -0.1)">
       <use xlink:href="#DejaVuSans-49"/>
       <use x="63.623047" xlink:href="#DejaVuSans-53"/>
       <use x="127.246094" xlink:href="#DejaVuSans-98"/>
       <use x="190.722656" xlink:href="#DejaVuSans-57"/>
       <use x="254.345703" xlink:href="#DejaVuSans-52"/>
       <use x="317.96875" xlink:href="#DejaVuSans-48"/>
       <use x="381.591797" xlink:href="#DejaVuSans-100"/>
      </g>
     </g>
    </g>
    <g id="xtick_31">
     <g id="line2d_31">
      <g>
       <use style="stroke:#000000;stroke-width:0.8;" x="1090.999545" xlink:href="#md6210c36c8" y="224.889131"/>
      </g>
     </g>
     <g id="text_31">
      <!-- 8b43398 -->
      <g transform="translate(1085.978554 276.326295)rotate(-70)scale(0.1 -0.1)">
       <use xlink:href="#DejaVuSans-56"/>
       <use x="63.623047" xlink:href="#DejaVuSans-98"/>
       <use x="127.099609" xlink:href="#DejaVuSans-52"/>
       <use x="190.722656" xlink:href="#DejaVuSans-51"/>
       <use x="254.345703" xlink:href="#DejaVuSans-51"/>
       <use x="317.96875" xlink:href="#DejaVuSans-57"/>
       <use x="381.591797" xlink:href="#DejaVuSans-56"/>
      </g>
     </g>
    </g>
   </g>
   <g id="matplotlib.axis_2">
    <g id="ytick_1">
     <g id="line2d_32">
      <defs>
       <path d="M 0 0 
L -3.5 0 
" id="m9236ed9f20" style="stroke:#000000;stroke-width:0.8;"/>
      </defs>
      <g>
       <use style="stroke:#000000;stroke-width:0.8;" x="36.79" xlink:href="#m9236ed9f20" y="211.797618"/>
      </g>
     </g>
     <g id="text_32">
      <!-- 60 -->
      <g transform="translate(17.065 215.596837)scale(0.1 -0.1)">
       <use xlink:href="#DejaVuSans-54"/>
       <use x="63.623047" xlink:href="#DejaVuSans-48"/>
      </g>
     </g>
    </g>
    <g id="ytick_2">
     <g id="line2d_33">
      <g>
       <use style="stroke:#000000;stroke-width:0.8;" x="36.79" xlink:href="#m9236ed9f20" y="170.886641"/>
      </g>
     </g>
     <g id="text_33">
      <!-- 70 -->
      <g transform="translate(17.065 174.685859)scale(0.1 -0.1)">
       <use xlink:href="#DejaVuSans-55"/>
       <use x="63.623047" xlink:href="#DejaVuSans-48"/>
      </g>
     </g>
    </g>
    <g id="ytick_3">
     <g id="line2d_34">
      <g>
       <use style="stroke:#000000;stroke-width:0.8;" x="36.79" xlink:href="#m9236ed9f20" y="129.975663"/>
      </g>
     </g>
     <g id="text_34">
      <!-- 80 -->
      <g transform="translate(17.065 133.774882)scale(0.1 -0.1)">
       <use xlink:href="#DejaVuSans-56"/>
       <use x="63.623047" xlink:href="#DejaVuSans-48"/>
      </g>
     </g>
    </g>
    <g id="ytick_4">
     <g id="line2d_35">
      <g>
       <use style="stroke:#000000;stroke-width:0.8;" x="36.79" xlink:href="#m9236ed9f20" y="89.064686"/>
      </g>
     </g>
     <g id="text_35">
      <!-- 90 -->
      <g transform="translate(17.065 92.863904)scale(0.1 -0.1)">
       <use xlink:href="#DejaVuSans-57"/>
       <use x="63.623047" xlink:href="#DejaVuSans-48"/>
      </g>
     </g>
    </g>
    <g id="ytick_5">
     <g id="line2d_36">
      <g>
       <use style="stroke:#000000;stroke-width:0.8;" x="36.79" xlink:href="#m9236ed9f20" y="48.153708"/>
      </g>
     </g>
     <g id="text_36">
      <!-- 100 -->
      <g transform="translate(10.7025 51.952927)scale(0.1 -0.1)">
       <use xlink:href="#DejaVuSans-49"/>
       <use x="63.623047" xlink:href="#DejaVuSans-48"/>
       <use x="127.246094" xlink:href="#DejaVuSans-48"/>
      </g>
     </g>
    </g>
   </g>
   <g id="line2d_37">
    <path clip-path="url(#paee7950dff)" d="M 86.990455 146.340054 
L 86.990455 150.431152 
L 120.457424 35.880415 
L 153.924394 150.431152 
L 187.391364 150.431152 
L 220.858333 150.431152 
L 254.325303 150.431152 
L 287.792273 150.431152 
L 321.259242 150.431152 
L 354.726212 150.431152 
L 388.193182 211.797618 
L 421.660152 211.797618 
L 455.127121 211.797618 
L 488.594091 215.888716 
L 522.061061 150.431152 
L 555.52803 150.431152 
L 588.995 150.431152 
L 622.46197 150.431152 
L 655.928939 150.431152 
L 689.395909 150.431152 
L 722.862879 150.431152 
L 756.329848 150.431152 
L 789.796818 150.431152 
L 823.263788 150.431152 
L 856.730758 146.340054 
L 890.197727 150.431152 
L 923.664697 150.431152 
L 957.131667 150.431152 
L 990.598636 146.340054 
L 1024.065606 150.431152 
L 1057.532576 150.431152 
L 1090.999545 150.431152 
" style="fill:none;stroke:#1f77b4;stroke-linecap:square;stroke-width:1.5;"/>
    <defs>
     <path d="M 0 3 
C 0.795609 3 1.55874 2.683901 2.12132 2.12132 
C 2.683901 1.55874 3 0.795609 3 0 
C 3 -0.795609 2.683901 -1.55874 2.12132 -2.12132 
C 1.55874 -2.683901 0.795609 -3 0 -3 
C -0.795609 -3 -1.55874 -2.683901 -2.12132 -2.12132 
C -2.683901 -1.55874 -3 -0.795609 -3 0 
C -3 0.795609 -2.683901 1.55874 -2.12132 2.12132 
C -1.55874 2.683901 -0.795609 3 0 3 
z
" id="m040871b692" style="stroke:#1f77b4;"/>
    </defs>
    <g clip-path="url(#paee7950dff)">
     <use style="fill:#1f77b4;stroke:#1f77b4;" x="86.990455" xlink:href="#m040871b692" y="146.340054"/>
     <use style="fill:#1f77b4;stroke:#1f77b4;" x="86.990455" xlink:href="#m040871b692" y="150.431152"/>
     <use style="fill:#1f77b4;stroke:#1f77b4;" x="120.457424" xlink:href="#m040871b692" y="35.880415"/>
     <use style="fill:#1f77b4;stroke:#1f77b4;" x="153.924394" xlink:href="#m040871b692" y="150.431152"/>
     <use style="fill:#1f77b4;stroke:#1f77b4;" x="187.391364" xlink:href="#m040871b692" y="150.431152"/>
     <use style="fill:#1f77b4;stroke:#1f77b4;" x="220.858333" xlink:href="#m040871b692" y="150.431152"/>
     <use style="fill:#1f77b4;stroke:#1f77b4;" x="254.325303" xlink:href="#m040871b692" y="150.431152"/>
     <use style="fill:#1f77b4;stroke:#1f77b4;" x="287.792273" xlink:href="#m040871b692" y="150.431152"/>
     <use style="fill:#1f77b4;stroke:#1f77b4;" x="321.259242" xlink:href="#m040871b692" y="150.431152"/>
     <use style="fill:#1f77b4;stroke:#1f77b4;" x="354.726212" xlink:href="#m040871b692" y="150.431152"/>
     <use style="fill:#1f77b4;stroke:#1f77b4;" x="388.193182" xlink:href="#m040871b692" y="211.797618"/>
     <use style="fill:#1f77b4;stroke:#1f77b4;" x="421.660152" xlink:href="#m040871b692" y="211.797618"/>
     <use style="fill:#1f77b4;stroke:#1f77b4;" x="455.127121" xlink:href="#m040871b692" y="211.797618"/>
     <use style="fill:#1f77b4;stroke:#1f77b4;" x="488.594091" xlink:href="#m040871b692" y="215.888716"/>
     <use style="fill:#1f77b4;stroke:#1f77b4;" x="522.061061" xlink:href="#m040871b692" y="150.431152"/>
     <use style="fill:#1f77b4;stroke:#1f77b4;" x="555.52803" xlink:href="#m040871b692" y="150.431152"/>
     <use style="fill:#1f77b4;stroke:#1f77b4;" x="588.995" xlink:href="#m040871b692" y="150.431152"/>
     <use style="fill:#1f77b4;stroke:#1f77b4;" x="622.46197" xlink:href="#m040871b692" y="150.431152"/>
     <use style="fill:#1f77b4;stroke:#1f77b4;" x="655.928939" xlink:href="#m040871b692" y="150.431152"/>
     <use style="fill:#1f77b4;stroke:#1f77b4;" x="689.395909" xlink:href="#m040871b692" y="150.431152"/>
     <use style="fill:#1f77b4;stroke:#1f77b4;" x="722.862879" xlink:href="#m040871b692" y="150.431152"/>
     <use style="fill:#1f77b4;stroke:#1f77b4;" x="756.329848" xlink:href="#m040871b692" y="150.431152"/>
     <use style="fill:#1f77b4;stroke:#1f77b4;" x="789.796818" xlink:href="#m040871b692" y="150.431152"/>
     <use style="fill:#1f77b4;stroke:#1f77b4;" x="823.263788" xlink:href="#m040871b692" y="150.431152"/>
     <use style="fill:#1f77b4;stroke:#1f77b4;" x="856.730758" xlink:href="#m040871b692" y="146.340054"/>
     <use style="fill:#1f77b4;stroke:#1f77b4;" x="890.197727" xlink:href="#m040871b692" y="150.431152"/>
     <use style="fill:#1f77b4;stroke:#1f77b4;" x="923.664697" xlink:href="#m040871b692" y="150.431152"/>
     <use style="fill:#1f77b4;stroke:#1f77b4;" x="957.131667" xlink:href="#m040871b692" y="150.431152"/>
     <use style="fill:#1f77b4;stroke:#1f77b4;" x="990.598636" xlink:href="#m040871b692" y="146.340054"/>
     <use style="fill:#1f77b4;stroke:#1f77b4;" x="1024.065606" xlink:href="#m040871b692" y="150.431152"/>
     <use style="fill:#1f77b4;stroke:#1f77b4;" x="1057.532576" xlink:href="#m040871b692" y="150.431152"/>
     <use style="fill:#1f77b4;stroke:#1f77b4;" x="1090.999545" xlink:href="#m040871b692" y="150.431152"/>
    </g>
   </g>
   <g id="patch_3">
    <path d="M 36.79 224.889131 
L 36.79 26.88 
" style="fill:none;stroke:#000000;stroke-linecap:square;stroke-linejoin:miter;stroke-width:0.8;"/>
   </g>
   <g id="patch_4">
    <path d="M 1141.2 224.889131 
L 1141.2 26.88 
" style="fill:none;stroke:#000000;stroke-linecap:square;stroke-linejoin:miter;stroke-width:0.8;"/>
   </g>
   <g id="patch_5">
    <path d="M 36.79 224.889131 
L 1141.2 224.889131 
" style="fill:none;stroke:#000000;stroke-linecap:square;stroke-linejoin:miter;stroke-width:0.8;"/>
   </g>
   <g id="patch_6">
    <path d="M 36.79 26.88 
L 1141.2 26.88 
" style="fill:none;stroke:#000000;stroke-linecap:square;stroke-linejoin:miter;stroke-width:0.8;"/>
   </g>
   <g id="text_37">
    <!-- data rate (MB/s) over different GNES versions -->
    <defs>
     <path d="M 18.3125 70.21875 
L 18.3125 54.6875 
L 36.8125 54.6875 
L 36.8125 47.703125 
L 18.3125 47.703125 
L 18.3125 18.015625 
Q 18.3125 11.328125 20.140625 9.421875 
Q 21.96875 7.515625 27.59375 7.515625 
L 36.8125 7.515625 
L 36.8125 0 
L 27.59375 0 
Q 17.1875 0 13.234375 3.875 
Q 9.28125 7.765625 9.28125 18.015625 
L 9.28125 47.703125 
L 2.6875 47.703125 
L 2.6875 54.6875 
L 9.28125 54.6875 
L 9.28125 70.21875 
z
" id="DejaVuSans-116"/>
     <path id="DejaVuSans-32"/>
     <path d="M 41.109375 46.296875 
Q 39.59375 47.171875 37.8125 47.578125 
Q 36.03125 48 33.890625 48 
Q 26.265625 48 22.1875 43.046875 
Q 18.109375 38.09375 18.109375 28.8125 
L 18.109375 0 
L 9.078125 0 
L 9.078125 54.6875 
L 18.109375 54.6875 
L 18.109375 46.1875 
Q 20.953125 51.171875 25.484375 53.578125 
Q 30.03125 56 36.53125 56 
Q 37.453125 56 38.578125 55.875 
Q 39.703125 55.765625 41.0625 55.515625 
z
" id="DejaVuSans-114"/>
     <path d="M 31 75.875 
Q 24.46875 64.65625 21.28125 53.65625 
Q 18.109375 42.671875 18.109375 31.390625 
Q 18.109375 20.125 21.3125 9.0625 
Q 24.515625 -2 31 -13.1875 
L 23.1875 -13.1875 
Q 15.875 -1.703125 12.234375 9.375 
Q 8.59375 20.453125 8.59375 31.390625 
Q 8.59375 42.28125 12.203125 53.3125 
Q 15.828125 64.359375 23.1875 75.875 
z
" id="DejaVuSans-40"/>
     <path d="M 9.8125 72.90625 
L 24.515625 72.90625 
L 43.109375 23.296875 
L 61.8125 72.90625 
L 76.515625 72.90625 
L 76.515625 0 
L 66.890625 0 
L 66.890625 64.015625 
L 48.09375 14.015625 
L 38.1875 14.015625 
L 19.390625 64.015625 
L 19.390625 0 
L 9.8125 0 
z
" id="DejaVuSans-77"/>
     <path d="M 19.671875 34.8125 
L 19.671875 8.109375 
L 35.5 8.109375 
Q 43.453125 8.109375 47.28125 11.40625 
Q 51.125 14.703125 51.125 21.484375 
Q 51.125 28.328125 47.28125 31.5625 
Q 43.453125 34.8125 35.5 34.8125 
z
M 19.671875 64.796875 
L 19.671875 42.828125 
L 34.28125 42.828125 
Q 41.5 42.828125 45.03125 45.53125 
Q 48.578125 48.25 48.578125 53.8125 
Q 48.578125 59.328125 45.03125 62.0625 
Q 41.5 64.796875 34.28125 64.796875 
z
M 9.8125 72.90625 
L 35.015625 72.90625 
Q 46.296875 72.90625 52.390625 68.21875 
Q 58.5 63.53125 58.5 54.890625 
Q 58.5 48.1875 55.375 44.234375 
Q 52.25 40.28125 46.1875 39.3125 
Q 53.46875 37.75 57.5 32.78125 
Q 61.53125 27.828125 61.53125 20.40625 
Q 61.53125 10.640625 54.890625 5.3125 
Q 48.25 0 35.984375 0 
L 9.8125 0 
z
" id="DejaVuSans-66"/>
     <path d="M 25.390625 72.90625 
L 33.6875 72.90625 
L 8.296875 -9.28125 
L 0 -9.28125 
z
" id="DejaVuSans-47"/>
     <path d="M 44.28125 53.078125 
L 44.28125 44.578125 
Q 40.484375 46.53125 36.375 47.5 
Q 32.28125 48.484375 27.875 48.484375 
Q 21.1875 48.484375 17.84375 46.4375 
Q 14.5 44.390625 14.5 40.28125 
Q 14.5 37.15625 16.890625 35.375 
Q 19.28125 33.59375 26.515625 31.984375 
L 29.59375 31.296875 
Q 39.15625 29.25 43.1875 25.515625 
Q 47.21875 21.78125 47.21875 15.09375 
Q 47.21875 7.46875 41.1875 3.015625 
Q 35.15625 -1.421875 24.609375 -1.421875 
Q 20.21875 -1.421875 15.453125 -0.5625 
Q 10.6875 0.296875 5.421875 2 
L 5.421875 11.28125 
Q 10.40625 8.6875 15.234375 7.390625 
Q 20.0625 6.109375 24.8125 6.109375 
Q 31.15625 6.109375 34.5625 8.28125 
Q 37.984375 10.453125 37.984375 14.40625 
Q 37.984375 18.0625 35.515625 20.015625 
Q 33.0625 21.96875 24.703125 23.78125 
L 21.578125 24.515625 
Q 13.234375 26.265625 9.515625 29.90625 
Q 5.8125 33.546875 5.8125 39.890625 
Q 5.8125 47.609375 11.28125 51.796875 
Q 16.75 56 26.8125 56 
Q 31.78125 56 36.171875 55.265625 
Q 40.578125 54.546875 44.28125 53.078125 
z
" id="DejaVuSans-115"/>
     <path d="M 8.015625 75.875 
L 15.828125 75.875 
Q 23.140625 64.359375 26.78125 53.3125 
Q 30.421875 42.28125 30.421875 31.390625 
Q 30.421875 20.453125 26.78125 9.375 
Q 23.140625 -1.703125 15.828125 -13.1875 
L 8.015625 -13.1875 
Q 14.5 -2 17.703125 9.0625 
Q 20.90625 20.125 20.90625 31.390625 
Q 20.90625 42.671875 17.703125 53.65625 
Q 14.5 64.65625 8.015625 75.875 
z
" id="DejaVuSans-41"/>
     <path d="M 30.609375 48.390625 
Q 23.390625 48.390625 19.1875 42.75 
Q 14.984375 37.109375 14.984375 27.296875 
Q 14.984375 17.484375 19.15625 11.84375 
Q 23.34375 6.203125 30.609375 6.203125 
Q 37.796875 6.203125 41.984375 11.859375 
Q 46.1875 17.53125 46.1875 27.296875 
Q 46.1875 37.015625 41.984375 42.703125 
Q 37.796875 48.390625 30.609375 48.390625 
z
M 30.609375 56 
Q 42.328125 56 49.015625 48.375 
Q 55.71875 40.765625 55.71875 27.296875 
Q 55.71875 13.875 49.015625 6.21875 
Q 42.328125 -1.421875 30.609375 -1.421875 
Q 18.84375 -1.421875 12.171875 6.21875 
Q 5.515625 13.875 5.515625 27.296875 
Q 5.515625 40.765625 12.171875 48.375 
Q 18.84375 56 30.609375 56 
z
" id="DejaVuSans-111"/>
     <path d="M 2.984375 54.6875 
L 12.5 54.6875 
L 29.59375 8.796875 
L 46.6875 54.6875 
L 56.203125 54.6875 
L 35.6875 0 
L 23.484375 0 
z
" id="DejaVuSans-118"/>
     <path d="M 9.421875 54.6875 
L 18.40625 54.6875 
L 18.40625 0 
L 9.421875 0 
z
M 9.421875 75.984375 
L 18.40625 75.984375 
L 18.40625 64.59375 
L 9.421875 64.59375 
z
" id="DejaVuSans-105"/>
     <path d="M 54.890625 33.015625 
L 54.890625 0 
L 45.90625 0 
L 45.90625 32.71875 
Q 45.90625 40.484375 42.875 44.328125 
Q 39.84375 48.1875 33.796875 48.1875 
Q 26.515625 48.1875 22.3125 43.546875 
Q 18.109375 38.921875 18.109375 30.90625 
L 18.109375 0 
L 9.078125 0 
L 9.078125 54.6875 
L 18.109375 54.6875 
L 18.109375 46.1875 
Q 21.34375 51.125 25.703125 53.5625 
Q 30.078125 56 35.796875 56 
Q 45.21875 56 50.046875 50.171875 
Q 54.890625 44.34375 54.890625 33.015625 
z
" id="DejaVuSans-110"/>
     <path d="M 59.515625 10.40625 
L 59.515625 29.984375 
L 43.40625 29.984375 
L 43.40625 38.09375 
L 69.28125 38.09375 
L 69.28125 6.78125 
Q 63.578125 2.734375 56.6875 0.65625 
Q 49.8125 -1.421875 42 -1.421875 
Q 24.90625 -1.421875 15.25 8.5625 
Q 5.609375 18.5625 5.609375 36.375 
Q 5.609375 54.25 15.25 64.234375 
Q 24.90625 74.21875 42 74.21875 
Q 49.125 74.21875 55.546875 72.453125 
Q 61.96875 70.703125 67.390625 67.28125 
L 67.390625 56.78125 
Q 61.921875 61.421875 55.765625 63.765625 
Q 49.609375 66.109375 42.828125 66.109375 
Q 29.4375 66.109375 22.71875 58.640625 
Q 16.015625 51.171875 16.015625 36.375 
Q 16.015625 21.625 22.71875 14.15625 
Q 29.4375 6.6875 42.828125 6.6875 
Q 48.046875 6.6875 52.140625 7.59375 
Q 56.25 8.5 59.515625 10.40625 
z
" id="DejaVuSans-71"/>
     <path d="M 9.8125 72.90625 
L 23.09375 72.90625 
L 55.421875 11.921875 
L 55.421875 72.90625 
L 64.984375 72.90625 
L 64.984375 0 
L 51.703125 0 
L 19.390625 60.984375 
L 19.390625 0 
L 9.8125 0 
z
" id="DejaVuSans-78"/>
     <path d="M 9.8125 72.90625 
L 55.90625 72.90625 
L 55.90625 64.59375 
L 19.671875 64.59375 
L 19.671875 43.015625 
L 54.390625 43.015625 
L 54.390625 34.71875 
L 19.671875 34.71875 
L 19.671875 8.296875 
L 56.78125 8.296875 
L 56.78125 0 
L 9.8125 0 
z
" id="DejaVuSans-69"/>
     <path d="M 53.515625 70.515625 
L 53.515625 60.890625 
Q 47.90625 63.578125 42.921875 64.890625 
Q 37.9375 66.21875 33.296875 66.21875 
Q 25.25 66.21875 20.875 63.09375 
Q 16.5 59.96875 16.5 54.203125 
Q 16.5 49.359375 19.40625 46.890625 
Q 22.3125 44.4375 30.421875 42.921875 
L 36.375 41.703125 
Q 47.40625 39.59375 52.65625 34.296875 
Q 57.90625 29 57.90625 20.125 
Q 57.90625 9.515625 50.796875 4.046875 
Q 43.703125 -1.421875 29.984375 -1.421875 
Q 24.8125 -1.421875 18.96875 -0.25 
Q 13.140625 0.921875 6.890625 3.21875 
L 6.890625 13.375 
Q 12.890625 10.015625 18.65625 8.296875 
Q 24.421875 6.59375 29.984375 6.59375 
Q 38.421875 6.59375 43.015625 9.90625 
Q 47.609375 13.234375 47.609375 19.390625 
Q 47.609375 24.75 44.3125 27.78125 
Q 41.015625 30.8125 33.5 32.328125 
L 27.484375 33.5 
Q 16.453125 35.6875 11.515625 40.375 
Q 6.59375 45.0625 6.59375 53.421875 
Q 6.59375 63.09375 13.40625 68.65625 
Q 20.21875 74.21875 32.171875 74.21875 
Q 37.3125 74.21875 42.625 73.28125 
Q 47.953125 72.359375 53.515625 70.515625 
z
" id="DejaVuSans-83"/>
    </defs>
    <g transform="translate(451.805 20.88)scale(0.12 -0.12)">
     <use xlink:href="#DejaVuSans-100"/>
     <use x="63.476562" xlink:href="#DejaVuSans-97"/>
     <use x="124.755859" xlink:href="#DejaVuSans-116"/>
     <use x="163.964844" xlink:href="#DejaVuSans-97"/>
     <use x="225.244141" xlink:href="#DejaVuSans-32"/>
     <use x="257.03125" xlink:href="#DejaVuSans-114"/>
     <use x="298.144531" xlink:href="#DejaVuSans-97"/>
     <use x="359.423828" xlink:href="#DejaVuSans-116"/>
     <use x="398.632812" xlink:href="#DejaVuSans-101"/>
     <use x="460.15625" xlink:href="#DejaVuSans-32"/>
     <use x="491.943359" xlink:href="#DejaVuSans-40"/>
     <use x="530.957031" xlink:href="#DejaVuSans-77"/>
     <use x="617.236328" xlink:href="#DejaVuSans-66"/>
     <use x="685.839844" xlink:href="#DejaVuSans-47"/>
     <use x="719.53125" xlink:href="#DejaVuSans-115"/>
     <use x="771.630859" xlink:href="#DejaVuSans-41"/>
     <use x="810.644531" xlink:href="#DejaVuSans-32"/>
     <use x="842.431641" xlink:href="#DejaVuSans-111"/>
     <use x="903.613281" xlink:href="#DejaVuSans-118"/>
     <use x="962.792969" xlink:href="#DejaVuSans-101"/>
     <use x="1024.316406" xlink:href="#DejaVuSans-114"/>
     <use x="1065.429688" xlink:href="#DejaVuSans-32"/>
     <use x="1097.216797" xlink:href="#DejaVuSans-100"/>
     <use x="1160.693359" xlink:href="#DejaVuSans-105"/>
     <use x="1188.476562" xlink:href="#DejaVuSans-102"/>
     <use x="1223.681641" xlink:href="#DejaVuSans-102"/>
     <use x="1258.886719" xlink:href="#DejaVuSans-101"/>
     <use x="1320.410156" xlink:href="#DejaVuSans-114"/>
     <use x="1361.492188" xlink:href="#DejaVuSans-101"/>
     <use x="1423.015625" xlink:href="#DejaVuSans-110"/>
     <use x="1486.394531" xlink:href="#DejaVuSans-116"/>
     <use x="1525.603516" xlink:href="#DejaVuSans-32"/>
     <use x="1557.390625" xlink:href="#DejaVuSans-71"/>
     <use x="1634.880859" xlink:href="#DejaVuSans-78"/>
     <use x="1709.685547" xlink:href="#DejaVuSans-69"/>
     <use x="1772.869141" xlink:href="#DejaVuSans-83"/>
     <use x="1836.345703" xlink:href="#DejaVuSans-32"/>
     <use x="1868.132812" xlink:href="#DejaVuSans-118"/>
     <use x="1927.3125" xlink:href="#DejaVuSans-101"/>
     <use x="1988.835938" xlink:href="#DejaVuSans-114"/>
     <use x="2029.949219" xlink:href="#DejaVuSans-115"/>
     <use x="2082.048828" xlink:href="#DejaVuSans-105"/>
     <use x="2109.832031" xlink:href="#DejaVuSans-111"/>
     <use x="2171.013672" xlink:href="#DejaVuSans-110"/>
     <use x="2234.392578" xlink:href="#DejaVuSans-115"/>
    </g>
   </g>
  </g>
 </g>
 <defs>
  <clipPath id="paee7950dff">
   <rect height="198.009131" width="1104.41" x="36.79" y="26.88"/>
  </clipPath>
 </defs>
</svg>
